<?xml version="1.0" encoding="utf-8"?>
<!-- Generator: Adobe Illustrator 24.2.1, SVG Export Plug-In . SVG Version: 6.00 Build 0)  -->
<svg version="1.1" id="Layer_1" xmlns="http://www.w3.org/2000/svg" xmlns:xlink="http://www.w3.org/1999/xlink" x="0px" y="0px"
	 viewBox="0 0 377.4 179.2" style="enable-background:new 0 0 377.4 179.2;" xml:space="preserve">
<g>
	<path d="M361.6,50.5H253.2c-13.4-21.1-36.9-35-63.8-35s-50.4,14-63.8,35H17.8l11,11h91.1c-1.7,4-3,8.1-4,12.4H41.1l11,11h62
		c-0.2,2-0.3,4.1-0.3,6.1c0,2.1,0.1,4.2,0.3,6.3H64.4l11,11h40.4c1,4.3,2.3,8.4,4,12.4H87.8l11,11h27c13.4,21,36.9,34.9,63.7,34.9
		s50.3-13.9,63.7-34.9h27.6l11-11h-32.7c1.7-4,3-8.1,4-12.4h41l11-11h-50.3c0.2-2.1,0.3-4.1,0.3-6.3c0-2.1-0.1-4.1-0.3-6.1h62.6
		l11-11H263c-1-4.3-2.3-8.4-4-12.4h91.7L361.6,50.5z M189.7,155.6c-35.6,0-64.5-28.9-64.5-64.5s28.9-64.5,64.5-64.5
		s64.5,28.9,64.5,64.5S225.3,155.6,189.7,155.6z"/>
	<polygon points="156.5,100.5 147.8,74 137.8,74 137.8,108 145.1,108 145.1,82.8 152.7,108 160.2,108 167.9,82.8 167.9,108 
		175.2,108 175.2,74 165.2,74 	"/>
	<polygon points="219.7,98.9 206,74 198,74 198,108 204.7,108 204.7,84.2 218.4,108.2 226.5,108 226.5,74 219.8,74 	"/>
	<rect x="183.1" y="74" width="6.9" height="34"/>
	<rect x="234.3" y="74" width="6.9" height="34"/>
</g>
</svg>
